HIERARCHY
ROOT joint_Root
{
	OFFSET 0.0 0.0 0.0
	CHANNELS 6 Xposition Yposition Zposition Zrotation Xrotation Yrotation 
	JOINT Hips
	{
		OFFSET -17.1583 93.1646 452.98
		CHANNELS 6 Xposition Yposition Zposition Zrotation Xrotation Yrotation 
		JOINT Spine
		{
			OFFSET 15.7357 0.0 0.0
			CHANNELS 6 Xposition Yposition Zposition Zrotation Xrotation Yrotation 
			JOINT Chest
			{
				OFFSET 8.98455 -0.406207 0.0
				CHANNELS 6 Xposition Yposition Zposition Zrotation Xrotation Yrotation 
				JOINT Neck
				{
					OFFSET 16.3773 0.0 0.0
					CHANNELS 6 Xposition Yposition Zposition Zrotation Xrotation Yrotation 
					JOINT Head
					{
						OFFSET 6.45672 0.0 0.0
						CHANNELS 6 Xposition Yposition Zposition Zrotation Xrotation Yrotation 
						End Site
						{
							OFFSET 0.0 0.0 0.0
						}
					}
				}
				JOINT Shoulder_L
				{
					OFFSET 12.9942 -0.242716 4.98039
					CHANNELS 6 Xposition Yposition Zposition Zrotation Xrotation Yrotation 
					JOINT UpperArm_L
					{
						OFFSET 5.34809 0.0 0.0
						CHANNELS 6 Xposition Yposition Zposition Zrotation Xrotation Yrotation 
						JOINT LowerArm_L
						{
							OFFSET 24.3286 1.87007e-05 0.0
							CHANNELS 6 Xposition Yposition Zposition Zrotation Xrotation Yrotation 
							JOINT Hand_L
							{
								OFFSET 22.2916 0.0 0.0
								CHANNELS 6 Xposition Yposition Zposition Zrotation Xrotation Yrotation 
								End Site
								{
									OFFSET 0.0 0.0 0.0
								}
							}
						}
					}
				}
				JOINT Shoulder_R
				{
					OFFSET 12.9945 -0.242716 -4.98039
					CHANNELS 6 Xposition Yposition Zposition Zrotation Xrotation Yrotation 
					JOINT UpperArm_R
					{
						OFFSET -5.34813 0.0 0.0
						CHANNELS 6 Xposition Yposition Zposition Zrotation Xrotation Yrotation 
						JOINT LowerArm_R
						{
							OFFSET -24.3289 0.000322201 0.0
							CHANNELS 6 Xposition Yposition Zposition Zrotation Xrotation Yrotation 
							JOINT Hand_R
							{
								OFFSET -22.2915 -0.000108084 0.0
								CHANNELS 6 Xposition Yposition Zposition Zrotation Xrotation Yrotation 
								End Site
								{
									OFFSET 0.0 0.0 0.0
								}
							}
						}
					}
				}
			}
		}
		JOINT UpperLeg_L
		{
			OFFSET -2.19248 -6.46944 0.0
			CHANNELS 6 Xposition Yposition Zposition Zrotation Xrotation Yrotation 
			JOINT LowerLeg_L
			{
				OFFSET 39.0811 0.0 -1.23785e-05
				CHANNELS 6 Xposition Yposition Zposition Zrotation Xrotation Yrotation 
				JOINT Foot_L
				{
					OFFSET 40.9854 0.0 -1.26872e-05
					CHANNELS 6 Xposition Yposition Zposition Zrotation Xrotation Yrotation 
					JOINT Toes_L
					{
						OFFSET 11.7543 0.0 0.0
						CHANNELS 6 Xposition Yposition Zposition Zrotation Xrotation Yrotation 
						End Site
						{
							OFFSET 0.0 0.0 0.0
						}
					}
				}
			}
		}
		JOINT UpperLeg_R
		{
			OFFSET -2.19251 6.46944 0.0
			CHANNELS 6 Xposition Yposition Zposition Zrotation Xrotation Yrotation 
			JOINT LowerLeg_R
			{
				OFFSET -39.0811 -0.00228153 -0.0401928
				CHANNELS 6 Xposition Yposition Zposition Zrotation Xrotation Yrotation 
				JOINT Foot_R
				{
					OFFSET -40.9854 0.0 0.0
					CHANNELS 6 Xposition Yposition Zposition Zrotation Xrotation Yrotation 
					JOINT Toes_R
					{
						OFFSET -11.7543 0.0 0.0
						CHANNELS 6 Xposition Yposition Zposition Zrotation Xrotation Yrotation 
						End Site
						{
							OFFSET 0.0 0.0 0.0
						}
					}
				}
			}
		}
	}
}
MOTION
Frames:	9
Frame Time:	0.0333333
0.000000 0.000000 0.000000 0.000000 0.000000 -0.000000 -2.627510 93.732400 1.832660 87.835000 1.908740 -8.216310 15.735700 0.000005 -0.000001 -83.134300 88.309000 84.158400 8.984550 -0.406207 -0.000000 -11.118100 -0.570555 2.000690 16.377300 -0.000001 -0.000001 -8.341210 -0.746295 1.003110 6.456720 -0.000001 -0.000000 0.448901 -0.698546 0.189519 12.994200 -0.242716 4.980390 -87.263100 -5.074960 -61.612400 5.348090 -0.000007 -0.000001 -78.689500 -60.259400 -121.332000 24.328600 0.000019 0.000005 0.000044 -15.878600 0.000001 22.291600 -0.000001 0.000005 56.309200 4.143290 22.154300 12.994500 -0.242716 -4.980390 94.076500 -7.232570 -60.486100 -5.348130 -0.000001 -0.000004 -77.459500 -60.581900 -123.669000 -24.328900 0.000322 -0.000009 -0.001084 -28.471000 -0.000162 -22.291500 -0.000108 -0.000004 54.976900 5.398810 -2.899180 -2.192480 -6.469440 -0.000000 -171.239000 -5.157720 -1.600500 39.081100 -0.000007 -0.000012 -0.000001 -0.001988 0.000009 40.985400 -0.000006 -0.000013 -11.010500 14.228900 -59.820900 11.754300 -0.000000 0.000003 -0.000588 0.176992 -9.397540 -2.192510 6.469440 -0.000001 -179.887000 11.088700 178.299000 -39.081100 -0.002282 -0.040193 0.005416 -0.060243 1.962340 -40.985400 0.000008 0.000006 -8.747890 5.857740 -62.502600 -11.754300 -0.000006 -0.000006 -0.009264 0.265724 -5.779180
0.000000 0.000000 0.000000 0.000000 0.000000 -0.000000 -2.616940 93.721200 1.938010 87.851900 1.940450 -8.240760 15.735700 0.000005 -0.000001 -83.081700 88.323600 84.116800 8.984550 -0.406207 -0.000000 -11.088700 -0.571678 2.022730 16.377300 -0.000001 -0.000001 -8.283980 -0.708492 0.933431 6.456720 -0.000001 -0.000000 0.383317 -0.709083 0.328547 12.994200 -0.242716 4.980390 -87.294500 -5.015290 -61.606900 5.348090 -0.000007 -0.000001 -78.597100 -60.272000 -121.312000 24.328600 0.000019 0.000005 0.000048 -15.974700 0.000001 22.291600 -0.000001 0.000005 56.041500 4.149330 22.065100 12.994500 -0.242716 -4.980390 94.059200 -7.202590 -60.489900 -5.348130 -0.000001 -0.000004 -77.468400 -60.604900 -123.666000 -24.328900 0.000322 -0.000009 -0.001083 -28.416000 -0.000162 -22.291500 -0.000108 -0.000004 54.950600 5.397700 -2.863200 -2.192480 -6.469440 -0.000000 -171.251000 -5.158840 -1.559980 39.081100 -0.000007 -0.000012 -0.000001 -0.002080 0.000001 40.985400 -0.000006 -0.000013 -11.079600 14.271500 -59.879900 11.754300 -0.000000 0.000003 -0.000630 0.177624 -9.371880 -2.192510 6.469440 -0.000001 -179.912000 11.091200 178.358000 -39.081100 -0.002282 -0.040193 0.005375 -0.059260 1.955060 -40.985400 0.000008 0.000006 -8.719850 5.827370 -62.615700 -11.754300 -0.000006 -0.000006 -0.009827 0.270008 -5.604030
0.000000 0.000000 0.000000 0.000000 0.000000 -0.000000 -2.600970 93.708600 2.035640 87.872700 2.007250 -8.264930 15.735700 0.000005 -0.000001 -82.728300 88.335100 83.778800 8.984550 -0.406207 -0.000000 -11.063100 -0.591508 2.051860 16.377300 -0.000001 -0.000001 -8.230550 -0.709468 0.982108 6.456720 -0.000001 -0.000000 0.384595 -0.666604 0.312498 12.994200 -0.242716 4.980390 -87.320800 -4.971380 -61.630900 5.348090 -0.000007 -0.000001 -78.907600 -60.202400 -121.539000 24.328600 0.000019 0.000005 0.000045 -15.892500 0.000001 22.291600 -0.000001 0.000005 55.494000 4.151380 22.034700 12.994500 -0.242716 -4.980390 94.059500 -7.193910 -60.458300 -5.348130 -0.000001 -0.000004 -77.368400 -60.636600 -123.609000 -24.328900 0.000322 -0.000009 -0.001083 -28.266100 -0.000161 -22.291500 -0.000108 -0.000004 54.922400 5.398080 -2.875520 -2.192480 -6.469440 -0.000000 -171.282000 -5.139350 -1.529770 39.081100 -0.000007 -0.000012 -0.000001 0.000363 0.000011 40.985400 -0.000006 -0.000013 -10.911000 14.314200 -59.931200 11.754300 -0.000000 0.000003 -0.000526 0.176049 -9.435850 -2.192510 6.469440 -0.000001 -179.946000 10.958600 178.429000 -39.081100 -0.002282 -0.040193 0.005351 -0.059924 1.910240 -40.985400 0.000008 0.000006 -8.819390 5.629330 -62.619700 -11.754300 -0.000006 -0.000006 -0.009647 0.268646 -5.659710
0.000000 0.000000 0.000000 0.000000 0.000000 -0.000000 -2.580610 93.715200 2.146060 87.875000 2.039530 -8.337190 15.735700 0.000005 -0.000001 -83.058800 88.330000 84.130800 8.984550 -0.406207 -0.000000 -11.075600 -0.577426 2.096470 16.377300 -0.000001 -0.000001 -8.129500 -0.744570 1.022350 6.456720 -0.000001 -0.000000 0.445753 -0.693698 0.339926 12.994200 -0.242716 4.980390 -87.333600 -4.951080 -61.647900 5.348090 -0.000007 -0.000001 -78.381100 -60.352100 -121.013000 24.328600 0.000019 0.000005 0.000044 -16.232600 0.000001 22.291600 -0.000001 0.000005 54.100100 4.180690 21.599800 12.994500 -0.242716 -4.980390 94.061100 -7.184180 -60.415600 -5.348130 -0.000001 -0.000004 -77.118700 -60.703000 -123.423000 -24.328900 0.000322 -0.000009 -0.001084 -28.229000 -0.000161 -22.291500 -0.000108 -0.000004 54.893400 5.396480 -2.823610 -2.192480 -6.469440 -0.000000 -171.295000 -5.165720 -1.539760 39.081100 -0.000007 -0.000012 -0.000001 -0.002602 0.000005 40.985400 -0.000006 -0.000013 -10.969600 14.360600 -59.916300 11.754300 -0.000000 0.000003 -0.000505 0.175725 -9.449040 -2.192510 6.469440 -0.000001 -179.959000 10.992200 178.486000 -39.081100 -0.002282 -0.040193 0.005184 -0.058363 1.797430 -40.985400 0.000008 0.000006 -8.794730 5.650640 -62.596000 -11.754300 -0.000006 -0.000006 -0.009793 0.269749 -5.614630
0.000000 0.000000 0.000000 0.000000 0.000000 -0.000000 -2.555090 93.709800 2.253290 87.912300 2.062690 -8.391320 15.735700 0.000005 -0.000001 -83.139700 88.322200 84.226000 8.984550 -0.406207 -0.000000 -11.091400 -0.577099 2.125200 16.377300 -0.000001 -0.000001 -7.969170 -0.793522 1.130050 6.456720 -0.000001 -0.000000 0.586721 -0.674858 0.266399 12.994200 -0.242716 4.980390 -87.348700 -4.921500 -61.641500 5.348090 -0.000007 -0.000001 -78.162100 -60.351200 -120.730000 24.328600 0.000019 0.000005 0.000046 -16.237500 0.000001 22.291600 -0.000001 0.000005 52.713900 4.204260 21.248000 12.994500 -0.242716 -4.980390 94.091800 -7.235880 -60.405100 -5.348130 -0.000001 -0.000004 -77.078100 -60.684700 -123.359000 -24.328900 0.000322 -0.000009 -0.001081 -28.063700 -0.000160 -22.291500 -0.000108 -0.000004 54.775300 5.394290 -2.753200 -2.192480 -6.469440 -0.000000 -171.343000 -5.119290 -1.535020 39.081100 -0.000007 -0.000012 -0.000001 -0.002455 0.000000 40.985400 -0.000006 -0.000013 -10.931500 14.358500 -59.922600 11.754300 -0.000000 0.000003 -0.000566 0.176670 -9.410620 -2.192510 6.469440 -0.000001 179.985000 10.990700 178.530000 -39.081100 -0.002282 -0.040193 0.005144 -0.058911 1.742150 -40.985400 0.000008 0.000006 -8.897680 5.596640 -62.588900 -11.754300 -0.000006 -0.000006 -0.010123 0.272221 -5.513510
0.000000 0.000000 0.000000 0.000000 0.000000 -0.000000 -2.528560 93.723000 2.356290 87.916900 2.084650 -8.461290 15.735700 0.000005 -0.000001 -83.216200 88.317100 84.328100 8.984550 -0.406207 -0.000000 -11.102000 -0.578181 2.176320 16.377300 -0.000001 -0.000001 -7.760960 -0.806809 1.147900 6.456720 -0.000001 -0.000000 0.706157 -0.716177 0.253143 12.994200 -0.242716 4.980390 -87.363700 -4.893200 -61.639700 5.348090 -0.000007 -0.000001 -77.897300 -60.324300 -120.370000 24.328600 0.000019 0.000005 0.000043 -16.037100 0.000001 22.291600 -0.000001 0.000005 52.460000 4.213990 21.101800 12.994500 -0.242716 -4.980390 94.122500 -7.276870 -60.358700 -5.348130 -0.000001 -0.000004 -77.113700 -60.594900 -123.389000 -24.328900 0.000322 -0.000009 -0.001081 -27.930300 -0.000159 -22.291500 -0.000108 -0.000004 54.700400 5.393090 -2.714340 -2.192480 -6.469440 -0.000000 -171.364000 -5.166970 -1.550110 39.081100 -0.000007 -0.000012 -0.000001 -0.002026 0.000002 40.985400 -0.000006 -0.000013 -10.909300 14.421400 -59.895700 11.754300 -0.000000 0.000003 -0.000562 0.176601 -9.413420 -2.192510 6.469440 -0.000001 179.979000 10.745700 178.526000 -39.081100 -0.002282 -0.040193 0.005085 -0.057622 1.721990 -40.985400 0.000008 0.000006 -8.784100 5.323850 -62.566000 -11.754300 -0.000006 -0.000006 -0.009883 0.270426 -5.586960
0.000000 0.000000 0.000000 0.000000 0.000000 -0.000000 -2.495690 93.743600 2.424470 87.934700 2.072510 -8.561930 15.735700 0.000005 -0.000001 -83.619000 88.298600 84.755700 8.984550 -0.406207 -0.000000 -11.141400 -0.563315 2.227350 16.377300 -0.000001 -0.000001 -7.535350 -0.852629 1.171440 6.456720 -0.000001 -0.000000 0.786743 -0.759267 0.155345 12.994200 -0.242716 4.980390 -87.385500 -4.857430 -61.663400 5.348090 -0.000007 -0.000001 -77.616800 -60.317300 -120.047000 24.328600 0.000019 0.000005 0.000044 -15.787100 0.000001 22.291600 -0.000001 0.000005 52.388000 4.207550 21.198600 12.994500 -0.242716 -4.980390 94.161300 -7.322980 -60.281600 -5.348130 -0.000001 -0.000004 -77.110500 -60.445200 -123.381000 -24.328900 0.000322 -0.000009 -0.001081 -27.755600 -0.000158 -22.291500 -0.000108 -0.000004 54.815500 5.396800 -2.833850 -2.192480 -6.469440 -0.000000 -171.410000 -4.999960 -1.610740 39.081100 -0.000007 -0.000012 -0.000001 -0.003980 0.000003 40.985400 -0.000006 -0.000013 -10.946200 14.199500 -59.901400 11.754300 -0.000000 0.000003 -0.000800 0.180149 -9.269280 -2.192510 6.469440 -0.000001 179.956000 10.719000 178.491000 -39.081100 -0.002282 -0.040193 0.005036 -0.058078 1.659740 -40.985400 0.000008 0.000006 -8.843950 5.260430 -62.479600 -11.754300 -0.000006 -0.000006 -0.010197 0.272767 -5.491180
0.000000 0.000000 0.000000 0.000000 0.000000 -0.000000 -2.466480 93.756400 2.498880 87.938100 2.058010 -8.610410 15.735700 0.000005 -0.000001 -83.927100 88.323600 85.070200 8.984550 -0.406207 -0.000000 -11.093900 -0.540569 2.242600 16.377300 -0.000001 -0.000001 -7.417120 -0.899953 1.186780 6.456720 -0.000001 -0.000000 0.845116 -0.807161 0.174742 12.994200 -0.242716 4.980390 -87.367300 -4.886700 -61.640700 5.348090 -0.000007 -0.000001 -77.721100 -60.284100 -120.088000 24.328600 0.000019 0.000005 0.000045 -15.766000 0.000001 22.291600 -0.000001 0.000005 52.060400 4.206500 21.214300 12.994500 -0.242716 -4.980390 94.180100 -7.358020 -60.287100 -5.348130 -0.000001 -0.000004 -76.881300 -60.555400 -123.069000 -24.328900 0.000322 -0.000009 -0.001081 -27.565700 -0.000157 -22.291500 -0.000108 -0.000004 54.482000 5.389960 -2.614000 -2.192480 -6.469440 -0.000000 -171.443000 -4.862070 -1.619120 39.081100 -0.000007 -0.000012 -0.000001 -0.004446 0.000002 40.985400 -0.000006 -0.000013 -10.833400 14.019900 -59.857200 11.754300 -0.000000 0.000003 -0.000629 0.177620 -9.372020 -2.192510 6.469440 -0.000001 179.923000 10.691200 178.514000 -39.081100 -0.002282 -0.040193 0.004994 -0.059804 1.571930 -40.985400 0.000008 0.000006 -8.996020 5.285050 -62.302100 -11.754300 -0.000006 -0.000006 -0.010097 0.272031 -5.521300
0.000000 0.000000 0.000000 0.000000 0.000000 -0.000000 -2.451840 93.785900 2.527310 87.929400 2.023970 -8.725640 15.735700 0.000005 -0.000001 -84.270700 88.319700 85.430100 8.984550 -0.406207 -0.000000 -11.103800 -0.524241 2.276900 16.377300 -0.000001 -0.000001 -7.293180 -0.898648 1.179430 6.456720 -0.000001 -0.000000 0.863063 -0.821792 0.202780 12.994200 -0.242716 4.980390 -87.354100 -4.912970 -61.648200 5.348090 -0.000007 -0.000001 -77.641300 -60.315300 -119.986000 24.328600 0.000019 0.000005 0.000044 -15.969300 0.000001 22.291600 -0.000001 0.000005 51.924300 4.221850 20.983600 12.994500 -0.242716 -4.980390 94.201600 -7.400050 -60.299900 -5.348130 -0.000001 -0.000004 -76.780200 -60.547100 -122.966000 -24.328900 0.000322 -0.000009 -0.001080 -27.349600 -0.000155 -22.291500 -0.000108 -0.000004 54.247600 5.390270 -2.624160 -2.192480 -6.469440 -0.000000 -171.464000 -4.854560 -1.715430 39.081100 -0.000007 -0.000012 -0.000001 -0.006438 0.000001 40.985400 -0.000006 -0.000013 -10.856600 13.946100 -59.807200 11.754300 -0.000000 0.000003 -0.000810 0.180304 -9.263000 -2.192510 6.469440 -0.000001 179.945000 10.562100 178.415000 -39.081100 -0.002282 -0.040193 0.004960 -0.059509 1.546660 -40.985400 0.000008 0.000006 -8.957150 5.151720 -62.236600 -11.754300 -0.000006 -0.000006 -0.010368 0.274034 -5.439370
